<?xml version="1.0" encoding="UTF-8" standalone="no"?>
<svg
   version="1.1"
   viewBox="0 0 508 508"
   width="800"
   height="800"
   id="svg21"
   sodipodi:docname="driller-drill-svgrepo-com.svg"
   inkscape:version="1.4.2 (ebf0e94, 2025-05-08)"
   xmlns:inkscape="http://www.inkscape.org/namespaces/inkscape"
   xmlns:sodipodi="http://sodipodi.sourceforge.net/DTD/sodipodi-0.dtd"
   xmlns="http://www.w3.org/2000/svg"
   xmlns:svg="http://www.w3.org/2000/svg">
  <defs
     id="defs21" />
  <sodipodi:namedview
     id="namedview21"
     pagecolor="#ffffff"
     bordercolor="#000000"
     borderopacity="0.25"
     inkscape:showpageshadow="2"
     inkscape:pageopacity="0.0"
     inkscape:pagecheckerboard="0"
     inkscape:deskcolor="#d1d1d1"
     inkscape:zoom="0.37609242"
     inkscape:cx="768.42814"
     inkscape:cy="331.03565"
     inkscape:window-width="1920"
     inkscape:window-height="1111"
     inkscape:window-x="-9"
     inkscape:window-y="-9"
     inkscape:window-maximized="1"
     inkscape:current-layer="svg21" />
  <circle
     fill="#007bff"
     cx="254"
     cy="254"
     r="254"
     id="circle1" />
  <g
     fill="none"
     stroke="#ffffff"
     stroke-width="12"
     id="g21"
     transform="matrix(1.2,0,0,1.2,-52.8,-48.8)">
    <circle
       cx="254"
       cy="94"
       r="8"
       id="circle10" />
    <!-- 0° -->
    <circle
       cx="329"
       cy="115"
       r="8"
       id="circle11" />
    <!-- 30° -->
    <circle
       cx="378"
       cy="169"
       r="8"
       id="circle12" />
    <!-- 60° -->
    <circle
       cx="398"
       cy="244"
       r="8"
       id="circle13" />
    <!-- 90° -->
    <circle
       cx="378"
       cy="319"
       r="8"
       id="circle14" />
    <!-- 120° -->
    <circle
       cx="329"
       cy="373"
       r="8"
       id="circle15" />
    <!-- 150° -->
    <circle
       cx="254"
       cy="394"
       r="8"
       id="circle16" />
    <!-- 180° -->
    <circle
       cx="179"
       cy="373"
       r="8"
       id="circle17" />
    <!-- 210° -->
    <circle
       cx="130"
       cy="319"
       r="8"
       id="circle18" />
    <!-- 240° -->
    <!-- 270° -->
    <circle
       cx="130"
       cy="169"
       r="8"
       id="circle20" />
    <!-- 300° -->
    <circle
       cx="179"
       cy="115"
       r="8"
       id="circle21" />
    <!-- 330° -->
  </g>
  <path
     fill="#ffffff"
     d="m 255.84,270 h 203.52 c 7.68,0 14.4,-6.24 14.4,-14.4 0,-8.16 -6.24,-14.4 -14.4,-14.4 H 255.84 c -7.68,0 -14.4,6.24 -14.4,14.4 0,8.16 6.72,14.4 14.4,14.4 z"
     id="path1"
     style="stroke-width:1.2" />
  <g
     id="g1"
     transform="matrix(1.2,0,0,1.2,-43.679999,-50.8)">
    <polygon
       fill="#ffffff"
       points="230.4,288.4 280.4,273.2 280.4,234.8 230.4,219.6 "
       id="polygon1" />
    <rect
       x="156.39999"
       y="187.2"
       width="58.799999"
       height="133.60001"
       fill="#ffffff"
       id="rect1" />
  </g>
  <polygon
     fill="#cce4ff"
     points="215.2,187.2 215.2,320.8 246,307.6 246,200.4 "
     id="polygon2"
     transform="matrix(1.2,0,0,1.2,-46.12,-50.8)" />
  <g
     fill="#e6f0ff"
     id="g7"
     transform="matrix(1.2,0,0,1.2,-74.4,-51.16)">
    <polygon
       points="308,267.6 322.4,244 333.6,244 319.6,267.6 "
       id="polygon3" />
    <polygon
       points="333.6,267.6 348,244 359.2,244 345.2,267.6 "
       id="polygon4" />
    <polygon
       points="359.2,267.6 373.6,244 384.8,244 370.8,267.6 "
       id="polygon5" />
    <polygon
       points="384.8,267.6 398.8,244 410.4,244 396.4,267.6 "
       id="polygon6" />
    <polygon
       points="410.4,267.6 424.4,244 436,244 422,267.6 "
       id="polygon7" />
  </g>
  <rect
     x="43.32"
     y="173.84"
     width="123.36"
     height="160.32001"
     fill="#004bbf"
     id="rect7"
     style="stroke-width:1.2" />
  <g
     fill="#ffffff"
     id="g10"
     inkscape:label="g10"
     transform="matrix(1.2,0,0,1.2,-20.999999,-50.800002)">
    <rect
       x="71.199997"
       y="215.60001"
       width="67.599998"
       height="11.2"
       id="rect8" />
    <rect
       x="71.199997"
       y="248.39999"
       width="67.599998"
       height="11.2"
       id="rect9" />
    <rect
       x="71.199997"
       y="281.20001"
       width="67.599998"
       height="11.2"
       id="rect10" />
  </g>
</svg>
